<?xml version="1.0" standalone="no"?>
<!DOCTYPE svg PUBLIC "-//W3C//DTD SVG 20010904//EN"
 "http://www.w3.org/TR/2001/REC-SVG-20010904/DTD/svg10.dtd">
<svg version="1.0" xmlns="http://www.w3.org/2000/svg"
 width="600.000000pt" height="600.000000pt" viewBox="0 0 600.000000 600.000000"
 preserveAspectRatio="xMidYMid meet">
<metadata>
Created by potrace 1.14, written by Peter Selinger 2001-2017
</metadata>
<g transform="translate(0.000000,600.000000) scale(0.100000,-0.100000)"
fill="#000000" stroke="none">
<path d="M3190 5983 c0 -8 -39 -18 -160 -39 -33 -6 -177 -52 -215 -69 -16 -7
-74 -28 -128 -46 -77 -25 -108 -41 -143 -73 -24 -23 -44 -47 -44 -53 0 -8 -16
-10 -53 -6 -68 7 -286 -46 -380 -93 -165 -81 -268 -214 -402 -519 -75 -170
-173 -352 -243 -452 -67 -96 -100 -156 -152 -278 -16 -37 -59 -200 -68 -258
-15 -96 -3 -210 29 -276 22 -46 89 -144 101 -149 5 -2 13 -12 19 -23 8 -16 3
-31 -26 -79 -20 -33 -36 -63 -36 -67 0 -4 -6 -17 -13 -28 -23 -36 -53 -129
-55 -173 -1 -24 -5 -53 -10 -65 -25 -70 20 -287 88 -424 12 -24 26 -64 32 -91
11 -44 9 -53 -15 -104 -21 -44 -38 -64 -78 -89 -28 -18 -56 -34 -62 -35 -6 -2
-31 -7 -56 -11 -51 -10 -151 4 -187 27 -13 8 -30 32 -38 53 -12 31 -18 35 -29
25 -11 -10 -11 -15 1 -26 7 -7 13 -21 13 -29 0 -26 46 -96 81 -126 18 -15 27
-27 19 -27 -18 0 -150 137 -150 155 0 7 -4 15 -9 17 -5 2 -22 25 -39 51 l-31
49 1 -43 c1 -64 60 -193 131 -287 57 -75 168 -161 199 -154 4 1 20 -17 36 -41
37 -52 59 -71 97 -85 29 -10 29 -10 5 -13 -47 -4 -115 2 -140 11 -14 6 -34 11
-45 13 -47 7 -159 51 -177 69 -19 19 -19 19 -13 -19 6 -39 37 -106 58 -127 62
-60 150 -106 227 -120 14 -2 55 -22 90 -45 36 -22 71 -41 78 -41 7 0 11 -4 7
-9 -15 -26 -25 -486 -12 -591 15 -121 18 -144 22 -150 6 -9 -320 -170 -344
-170 -6 0 -30 -14 -53 -30 -22 -17 -45 -30 -49 -30 -5 0 -55 -28 -111 -61 -57
-34 -123 -71 -148 -83 -25 -12 -65 -35 -90 -51 -25 -17 -74 -46 -110 -64 -36
-19 -121 -69 -190 -111 -69 -43 -146 -87 -172 -99 l-48 -21 0 -150 0 -150
2983 1 c1640 0 2976 3 2969 6 -7 3 -23 15 -35 27 -38 37 -190 137 -239 157
-16 6 -28 15 -28 20 0 5 -5 9 -12 9 -6 0 -25 11 -42 24 -17 12 -60 39 -96 58
-156 85 -226 120 -241 123 -32 6 -176 99 -319 205 -41 31 -109 79 -150 106
-130 87 -175 122 -191 151 -15 26 -15 32 2 83 10 30 30 107 44 170 14 63 31
133 37 155 6 22 12 79 14 126 7 174 10 187 47 222 19 18 46 48 61 68 l26 36
61 -30 c49 -23 78 -30 138 -32 42 -1 103 -10 135 -20 79 -23 185 -11 238 26
33 24 37 35 7 19 -36 -20 -169 -4 -169 19 0 4 14 18 30 33 21 18 27 29 19 34
-7 4 -17 1 -23 -7 -6 -8 -20 -16 -31 -17 -11 -2 -22 -7 -25 -11 -14 -18 -69
-6 -116 25 -54 36 -83 65 -128 132 l-29 42 47 48 c43 43 116 151 116 171 0 5
11 34 25 66 24 54 48 136 63 215 8 46 7 283 -2 340 -4 25 -14 87 -22 138 l-16
94 24 26 c12 15 27 28 31 30 17 8 56 102 59 141 3 52 14 62 21 18 7 -51 -1
-149 -17 -195 -8 -23 -12 -42 -8 -42 4 0 22 44 40 98 44 132 47 241 10 387
-28 106 -66 185 -133 270 -30 39 -62 79 -70 91 -11 14 -16 52 -18 130 -3 102
-5 114 -39 184 -42 88 -48 112 -63 248 -3 28 -12 73 -20 99 -8 26 -13 48 -12
50 3 2 111 -143 162 -218 11 -16 24 -29 28 -29 5 0 0 12 -11 28 -16 23 -63
138 -68 167 -6 32 -108 285 -144 356 -45 89 -109 192 -156 249 -69 83 -357
350 -378 350 -6 0 -34 23 -120 101 -193 174 -301 254 -426 312 -108 51 -242
86 -350 92 -25 2 -47 4 -50 5 -5 2 -43 1 -170 -4 -30 -1 -61 2 -67 7 -8 6 -13
6 -13 0z m1974 -2645 c21 -50 29 -131 17 -174 -5 -22 -12 -54 -15 -72 -6 -41
-13 -49 -29 -33 -14 14 -16 110 -4 196 5 33 9 72 9 88 0 35 6 34 22 -5z"/>
<path d="M5243 2985 c-3 -9 -3 -18 -1 -21 3 -3 8 4 11 16 6 23 -1 27 -10 5z"/>
</g>
</svg>
